#!OML:ASF C:\ViconDB\ViconDB\414\Spring2016\041811\Spring2016.ASF
:FULLY-SPECIFIED
:DEGREES
185
root 8.3566 18.1852 -10.9278 -174.32 -6.21959 182.463
lowerback 2.22503 3.50932 1.77121
upperback 0.592801 4.69872 0.791917
thorax -0.560329 2.33634 -0.299457
lowerneck -13.9311 -1.74045 -9.68848
upperneck 20.7644 -3.94117 13.1578
head 9.23875 -1.53602 5.70507
rclavicle 1.98785e-014 1.43125e-014
rhumerus -41.9285 14.0519 -91.0724
rradius 123.039
rwrist 5.11745
rhand -33.5197 -10.0666
rfingers 7.12502
rthumb -6.71589 -39.9401
lclavicle 1.98785e-014 1.43125e-014
lhumerus -80.2942 -20.17 98.7675
lradius 81.2821
lwrist -8.7446
lhand -35.9814 14.0804
lfingers 7.12502
lthumb -9.09185 43.8644
rfemur 10.1385 -9.05558 23.6846
rtibia 51.1503
rfoot -154.667 -13.9257
rtoes -18.3913
lfemur -38.2146 3.5813 -17.674
ltibia 41.2968
lfoot -8.14544 -6.81299
ltoes -4.88669
186
root 8.32005 18.0899 -11.3986 -175.031 -6.774 182.302
lowerback 2.65412 3.1702 1.47996
upperback 0.868126 4.24039 0.664592
thorax -0.537438 2.10727 -0.27373
lowerneck -13.7809 -2.06472 -10.4601
upperneck 20.378 -4.4318 14.1201
head 9.18089 -1.74522 6.11742
rclavicle -3.44146e-014 2.38542e-015
rhumerus -42.8158 13.1061 -91.237
rradius 120.174
rwrist 5.17808
rhand -33.5297 -10.7681
rfingers 7.12502
rthumb -6.72561 -40.6413
lclavicle -3.44146e-014 2.38542e-015
lhumerus -78.0838 -19.678 98.6316
lradius 81.5621
lwrist -8.48909
lhand -36.276 13.7202
lfingers 7.12502
lthumb -9.37611 43.4916
rfemur 8.25875 -10.3177 23.1203
rtibia 56.6324
rfoot -156.437 -13.9518
rtoes -16.9198
lfemur -36.748 4.1884 -18.4078
ltibia 42.6558
lfoot -9.18989 -7.0695
ltoes -5.18524
187
root 8.26144 17.9933 -11.878 -175.384 -7.23453 181.698
lowerback 2.80068 2.84622 1.05088
upperback 1.00201 3.79783 0.300775
thorax -0.492108 1.88806 -0.397972
lowerneck -13.4737 -2.24339 -10.7762
upperneck 20.0429 -4.73264 14.6161
head 9.07037 -1.88247 6.30351
rclavicle -5.81445e-014 -3.32964e-015
rhumerus -44.0333 11.9504 -91.4984
rradius 117.229
rwrist 4.78218
rhand -33.8795 -11.4058
rfingers 7.12502
rthumb -7.06322 -41.2679
lclavicle -5.81445e-014 -3.32964e-015
lhumerus -75.8686 -19.1915 98.4229
lradius 81.6483
lwrist -9.32357
lhand -36.0422 13.3305
lfingers 7.12502
lthumb -9.15051 43.1119
rfemur 6.08907 -11.7583 21.6267
rtibia 62.131
rfoot -157.924 -13.1226
rtoes -15.6097
lfemur -35.4358 4.14578 -19.2854
ltibia 44.2107
lfoot -11.196 -7.42508
ltoes -5.30856
188
root 8.22079 17.8886 -12.32 -175.875 -7.64938 180.613
lowerback 3.63806 2.53097 0.0311358
upperback 1.0899 3.33953 -0.22924
thorax -0.903064 1.65516 -0.396616
lowerneck -12.9143 -2.31799 -11.1264
upperneck 19.4683 -4.9199 15.3109
head 8.82241 -1.96537 6.57228
rclavicle 3.54334e-014 -1.49089e-016
rhumerus -45.1254 10.427 -92.0455
rradius 113.864
rwrist 5.71446
rhand -34.4793 -12.4138
rfingers 7.12502
rthumb -7.64217 -42.2557
lclavicle 3.54334e-014 -1.49089e-016
lhumerus -73.6006 -18.815 98.2403
lradius 82.0253
lwrist -8.95116
lhand -35.5647 13.037
lfingers 7.12502
lthumb -8.6897 42.8382
rfemur 3.73109 -13.0459 19.6803
rtibia 67.8276
rfoot -159.294 -12.0571
rtoes -14.672
lfemur -33.953 4.15896 -20.6119
ltibia 45.5302
lfoot -12.8669 -7.62518
ltoes -5.95467
189
root 8.18478 17.7927 -12.748 -176.32 -7.94669 179.294
lowerback 4.71728 2.24282 -1.28261
upperback 1.13269 2.8608 -0.799692
thorax -1.50009 1.40956 -0.271604
lowerneck -12.3461 -2.39963 -11.3701
upperneck 18.8735 -5.08664 15.8171
head 8.55992 -2.04901 6.75531
rclavicle -2.1419e-014 1.5207e-014
rhumerus -46.1324 8.80126 -92.4334
rradius 110.246
rwrist 6.45639
rhand -34.8897 -12.9302
rfingers 7.12502
rthumb -8.03832 -42.7573
lclavicle -2.1419e-014 1.5207e-014
lhumerus -71.0858 -18.3271 98.0461
lradius 81.8106
lwrist -9.98775
lhand -35.4229 12.5707
lfingers 7.12502
lthumb -8.55292 42.3775
rfemur 1.18413 -14.23 17.3569
rtibia 73.391
rfoot -160.24 -10.7331
rtoes -13.6709
lfemur -32.543 3.86664 -22.0261
ltibia 46.7012
lfoot -14.5392 -7.28015
ltoes -5.80112
190
root 8.16509 17.6953 -13.1544 -176.898 -8.07338 177.557
lowerback 6.15381 1.85849 -3.42419
upperback 1.18429 2.12028 -1.40021
thorax -2.30057 1.03447 0.307911
lowerneck -11.9241 -2.20282 -11.1138
upperneck 18.5684 -4.8755 15.8164
head 8.33923 -1.95709 6.71827
rclavicle 4.05024e-015 -1.13307e-014
rhumerus -47.1608 7.53816 -92.9258
rradius 106.419
rwrist 7.41784
rhand -34.4617 -14.0656
rfingers 7.12502
rthumb -7.62519 -43.9081
lclavicle 4.05024e-015 -1.13307e-014
lhumerus -68.5643 -17.5101 97.7826
lradius 81.6238
lwrist -10.6431
lhand -35.4321 12.3439
lfingers 7.12502
lthumb -8.56181 42.1503
rfemur -1.45541 -15.2486 14.5192
rtibia 78.918
rfoot -160.955 -9.29794
rtoes -13.1268
lfemur -30.7563 3.97922 -23.8631
ltibia 47.621
lfoot -16.1352 -7.11174
ltoes -6.54636
191
root 8.12856 17.6011 -13.5714 -177.158 -8.12369 176.606
lowerback 6.95328 1.7163 -4.25584
upperback 1.2889 1.77771 -1.88108
thorax -2.63932 0.853453 0.285373
lowerneck -11.7711 -2.35582 -11.622
upperneck 18.276 -5.1106 16.4301
head 8.2782 -2.06688 6.99481
rclavicle 1.10325e-014 2.06736e-014
rhumerus -47.8998 5.3974 -92.86
rradius 102.323
rwrist 8.35412
rhand -34.6808 -13.9197
rfingers 7.12502
rthumb -7.83673 -43.7545
lclavicle 1.10325e-014 2.06736e-014
lhumerus -65.6883 -17.6075 97.9807
lradius 81.0327
lwrist -11.7984
lhand -35.6824 12.2011
lfingers 7.12502
lthumb -8.8033 41.9975
rfemur -4.56225 -16.1471 12.5747
rtibia 84.0157
rfoot -161.49 -7.9147
rtoes -12.7597
lfemur -29.2907 3.92465 -24.7962
ltibia 48.4872
lfoot -17.6566 -6.90834
ltoes -6.58676
192
root 8.09343 17.5084 -13.9864 -177.326 -8.26067 176.03
lowerback 7.35199 1.56563 -4.66327
upperback 1.57727 1.47828 -2.24906
thorax -2.55409 0.682777 0.156636
lowerneck -12.0568 -2.62059 -12.1396
upperneck 18.015 -5.45313 17.0711
head 8.33443 -2.20119 7.27573
rclavicle -1.28713e-014 1.35174e-014
rhumerus -48.335 3.14406 -92.4685
rradius 98.2471
rwrist 8.76388
rhand -35.0574 -14.2502
rfingers 7.12502
rthumb -8.20021 -44.0711
lclavicle -1.28713e-014 1.35174e-014
lhumerus -62.3222 -18.2512 98.2675
lradius 80.3168
lwrist -12.5561
lhand -36.0691 12.2897
lfingers 7.12502
lthumb -9.17646 42.0701
rfemur -7.89871 -17.0574 11.2116
rtibia 88.7219
rfoot -161.867 -6.72645
rtoes -12.5498
lfemur -27.8471 4.10834 -25.3761
ltibia 49.2411
lfoot -19.3518 -6.96991
ltoes -7.54403
